<svg xmlns="http://www.w3.org/2000/svg" width="1400" height="1200" viewBox="0 0 1400 1200">
  <defs>
    <marker id="arrow" viewBox="0 0 10 10" refX="10" refY="5" markerWidth="8" markerHeight="8" orient="auto-start-reverse">
      <path d="M 0 0 L 10 5 L 0 10 z" fill="#333" />
    </marker>
    <style>
      .lane { fill: #f4f7ff; stroke: #c8d2f0; stroke-width: 1; rx: 12; }
      .box { fill: #ffffff; stroke: #333333; stroke-width: 2; rx: 10; }
      .box-ssot { fill: #fff4e5; stroke: #333333; stroke-width: 2; rx: 10; }
      .note-box { fill: #fdfdfd; stroke: #666666; stroke-width: 2; stroke-dasharray: 6 4; rx: 10; }
      .text { font-family: "Segoe UI", Arial, sans-serif; font-size: 14px; fill: #111111; }
      .title { font-weight: bold; }
      .note { font-size: 12px; fill: #333333; }
      .lane-title { font-family: "Segoe UI", Arial, sans-serif; font-size: 12px; font-weight: bold; fill: #3a4a7a; letter-spacing: 0.5px; }
      .arrow { stroke: #333333; stroke-width: 2; fill: none; marker-end: url(#arrow); }
      .arrow-dashed { stroke: #555555; stroke-width: 2; fill: none; stroke-dasharray: 6 4; marker-end: url(#arrow); }
    </style>
  </defs>

  <!-- Live pipeline lane -->
  <rect class="lane" x="480" y="60" width="440" height="980" />
  <text class="lane-title" x="500" y="86">LIVE PIPELINE</text>

  <!-- Replay label -->
  <text class="lane-title" x="80" y="86">REPLAY PIPELINE</text>

  <!-- Audio/parallel label -->
  <text class="lane-title" x="1000" y="86">AUDIO + PARALLEL</text>

  <!-- Central pipeline boxes -->
  <rect class="box" x="520" y="80" width="360" height="54" />
  <text class="text title" x="700" y="112" text-anchor="middle">Sensors (GPS, Baro, IMU, Compass)</text>

  <rect class="box" x="520" y="158" width="360" height="54" />
  <text class="text title" x="700" y="190" text-anchor="middle">SensorRegistry</text>

  <rect class="box" x="520" y="236" width="360" height="54" />
  <text class="text title" x="700" y="268" text-anchor="middle">UnifiedSensorManager (StateFlow)</text>

  <rect class="box" x="520" y="314" width="360" height="54" />
  <text class="text title" x="700" y="346" text-anchor="middle">FlightDataCalculatorEngine</text>

  <rect class="box" x="520" y="392" width="360" height="54" />
  <text class="text" x="700" y="414" text-anchor="middle">
    <tspan class="title" x="700" dy="0">SensorFusionRepository</tspan>
    <tspan class="note" x="700" dy="16">flightDataFlow</tspan>
  </text>

  <rect class="box" x="520" y="470" width="360" height="54" />
  <text class="text title" x="700" y="502" text-anchor="middle">VarioServiceManager</text>

  <rect class="box-ssot" x="520" y="548" width="360" height="54" />
  <text class="text" x="700" y="570" text-anchor="middle">
    <tspan class="title" x="700" dy="0">FlightDataRepository</tspan>
    <tspan class="note" x="700" dy="16">SSOT + Source gate</tspan>
  </text>

  <rect class="box" x="520" y="626" width="360" height="54" />
  <text class="text title" x="700" y="658" text-anchor="middle">FlightDataRepository.flightData</text>

  <rect class="box" x="520" y="704" width="360" height="54" />
  <text class="text title" x="700" y="736" text-anchor="middle">MapScreenViewModel</text>

  <rect class="box" x="520" y="782" width="360" height="54" />
  <text class="text" x="700" y="804" text-anchor="middle">
    <tspan class="title" x="700" dy="0">FlightDataUiAdapter</tspan>
    <tspan class="note" x="700" dy="16">wraps MapScreenObservers</tspan>
  </text>

  <rect class="box" x="520" y="860" width="360" height="54" />
  <text class="text title" x="700" y="892" text-anchor="middle">FlightDataManager</text>

  <rect class="box" x="520" y="938" width="360" height="54" />
  <text class="text title" x="700" y="970" text-anchor="middle">UI overlays (map + widgets)</text>

  <!-- Central arrows -->
  <line class="arrow" x1="700" y1="134" x2="700" y2="158" />
  <line class="arrow" x1="700" y1="212" x2="700" y2="236" />
  <line class="arrow" x1="700" y1="290" x2="700" y2="314" />
  <line class="arrow" x1="700" y1="368" x2="700" y2="392" />
  <line class="arrow" x1="700" y1="446" x2="700" y2="470" />
  <line class="arrow" x1="700" y1="524" x2="700" y2="548" />
  <line class="arrow" x1="700" y1="602" x2="700" y2="626" />
  <line class="arrow" x1="700" y1="680" x2="700" y2="704" />
  <line class="arrow" x1="700" y1="758" x2="700" y2="782" />
  <line class="arrow" x1="700" y1="836" x2="700" y2="860" />
  <line class="arrow" x1="700" y1="914" x2="700" y2="938" />

  <!-- Replay pipeline (left) -->
  <rect class="box" x="80" y="400" width="300" height="54" />
  <text class="text title" x="230" y="432" text-anchor="middle">IgcReplayController</text>

  <rect class="box" x="80" y="474" width="300" height="54" />
  <text class="text title" x="230" y="506" text-anchor="middle">ReplaySensorSource</text>

  <rect class="box" x="80" y="548" width="300" height="54" />
  <text class="text" x="230" y="570" text-anchor="middle">
    <tspan class="title" x="230" dy="0">ReplayPipeline</tspan>
    <tspan class="note" x="230" dy="16">replay fusion + forwarder</tspan>
  </text>

  <line class="arrow" x1="230" y1="454" x2="230" y2="474" />
  <line class="arrow" x1="230" y1="528" x2="230" y2="548" />
  <line class="arrow" x1="380" y1="575" x2="520" y2="575" />

  <!-- Audio branch (right) -->
  <rect class="box" x="1000" y="300" width="320" height="80" />
  <text class="text" x="1160" y="322" text-anchor="middle">
    <tspan class="title" x="1160" dy="0">Audio</tspan>
    <tspan class="note" x="1160" dy="18">VarioAudioController</tspan>
    <tspan class="note" x="1160" dy="16">VarioAudioEngine</tspan>
  </text>
  <line class="arrow" x1="880" y1="341" x2="1000" y2="341" />

  <!-- Parallel pipelines note (right) -->
  <rect class="note-box" x="1000" y="520" width="320" height="140" />
  <text class="text" x="1160" y="544" text-anchor="middle">
    <tspan class="title" x="1160" dy="0">Parallel pipelines</tspan>
    <tspan class="note" x="1160" dy="18">WindSensorFusionRepository</tspan>
    <tspan class="note" x="1160" dy="16">FlightStateRepository</tspan>
    <tspan class="note" x="1160" dy="16">feed metrics + observers</tspan>
  </text>

  <line class="arrow-dashed" x1="1000" y1="580" x2="880" y2="341" />
  <line class="arrow-dashed" x1="1000" y1="620" x2="880" y2="809" />

  <!-- MapComposeEffects note (right) -->
  <rect class="note-box" x="1000" y="700" width="320" height="90" />
  <text class="text" x="1160" y="722" text-anchor="middle">
    <tspan class="title" x="1160" dy="0">MapComposeEffects</tspan>
    <tspan class="note" x="1160" dy="16">prepareCardsForProfile (profile + size)</tspan>
    <tspan class="note" x="1160" dy="16">bind CardIngestionCoordinator</tspan>
    <tspan class="note" x="1160" dy="16">orientation updates (liveFlightDataFlow)</tspan>
  </text>

  <!-- Card ingestion owner -->
  <rect class="box" x="1000" y="800" width="320" height="60" />
  <text class="text" x="1160" y="822" text-anchor="middle">
    <tspan class="title" x="1160" dy="0">CardIngestionCoordinator</tspan>
    <tspan class="note" x="1160" dy="18">collects cardFlow + gating + units</tspan>
  </text>

  <!-- dfcards branch (right) -->
  <rect class="box" x="1000" y="880" width="320" height="80" />
  <text class="text" x="1160" y="902" text-anchor="middle">
    <tspan class="title" x="1160" dy="0">dfcards</tspan>
    <tspan class="note" x="1160" dy="18">FlightDataViewModel + cards</tspan>
  </text>
  <line class="arrow" x1="880" y1="830" x2="1000" y2="830" />
  <line class="arrow" x1="1160" y1="860" x2="1160" y2="880" />

  <rect class="box" x="1000" y="980" width="320" height="80" />
  <text class="text" x="1160" y="1002" text-anchor="middle">
    <tspan class="title" x="1160" dy="0">CardContainer</tspan>
    <tspan class="note" x="1160" dy="18">layout + card strings/time formatter</tspan>
  </text>
  <line class="arrow" x1="1160" y1="960" x2="1160" y2="980" />

  <!-- Card hydration gate (right) -->
  <rect class="note-box" x="1000" y="1070" width="320" height="100" />
  <text class="text" x="1160" y="1092" text-anchor="middle">
    <tspan class="title" x="1160" dy="0">cardHydrationReady</tspan>
    <tspan class="note" x="1160" dy="16">CardContainer/fallback size -> MapStateStore</tspan>
    <tspan class="note" x="1160" dy="16">FlightDataUiAdapter sets ready</tspan>
    <tspan class="note" x="1160" dy="16">CardIngestionCoordinator gates updates</tspan>
  </text>
</svg>
