<svg xmlns="http://www.w3.org/2000/svg" width="1400" height="1100" viewBox="0 0 1400 1100">
  <defs>
    <marker id="arrow" markerWidth="10" markerHeight="10" refX="9" refY="3" orient="auto">
      <path d="M0,0 L9,3 L0,6 Z" fill="#333"/>
    </marker>
    <style>
      .title { font: 700 22px Arial, sans-serif; fill: #111; }
      .lane { font: 700 14px Arial, sans-serif; fill: #111; }
      .box { fill: #f7f7f7; stroke: #333; stroke-width: 1.5; }
      .box-title { font: 600 13px Arial, sans-serif; fill: #111; }
      .box-small { font: 12px Arial, sans-serif; fill: #333; }
      .arrow { stroke: #333; stroke-width: 1.5; fill: none; marker-end: url(#arrow); }
      .arrow-dashed { stroke: #555; stroke-width: 1.2; fill: none; stroke-dasharray: 6 4; marker-end: url(#arrow); }
    </style>
  </defs>

  <text x="700" y="40" class="title" text-anchor="middle">Heading Up Orientation Pipeline (Live + Replay)</text>

  <text x="310" y="75" class="lane" text-anchor="middle">LIVE PIPELINE</text>
  <text x="1090" y="75" class="lane" text-anchor="middle">REPLAY PIPELINE</text>

  <!-- Live column -->
  <rect x="60" y="100" width="500" height="60" rx="6" class="box"/>
  <text x="310" y="122" class="box-title" text-anchor="middle">Android Sensors</text>
  <text x="310" y="142" class="box-small" text-anchor="middle">GPS, Baro, Magnetometer, IMU</text>

  <rect x="60" y="170" width="500" height="50" rx="6" class="box"/>
  <text x="310" y="200" class="box-title" text-anchor="middle">SensorRegistry</text>

  <rect x="60" y="240" width="500" height="60" rx="6" class="box"/>
  <text x="310" y="262" class="box-title" text-anchor="middle">UnifiedSensorManager</text>
  <text x="310" y="282" class="box-small" text-anchor="middle">gps / compass / attitude flows</text>

  <rect x="60" y="330" width="500" height="60" rx="6" class="box"/>
  <text x="310" y="352" class="box-title" text-anchor="middle">FlightDataCalculator (Live)</text>
  <text x="310" y="372" class="box-small" text-anchor="middle">SensorFusionRepository</text>

  <rect x="60" y="410" width="500" height="60" rx="6" class="box"/>
  <text x="310" y="432" class="box-title" text-anchor="middle">FlightDataRepository (LIVE)</text>
  <text x="310" y="452" class="box-small" text-anchor="middle">SSOT + source gate</text>

  <!-- Replay column -->
  <rect x="840" y="100" width="500" height="60" rx="6" class="box"/>
  <text x="1090" y="122" class="box-title" text-anchor="middle">IGC Log / Asset</text>

  <rect x="840" y="170" width="500" height="50" rx="6" class="box"/>
  <text x="1090" y="200" class="box-title" text-anchor="middle">IgcReplayController</text>

  <rect x="840" y="240" width="500" height="60" rx="6" class="box"/>
  <text x="1090" y="262" class="box-title" text-anchor="middle">ReplaySensorSource</text>
  <text x="1090" y="282" class="box-small" text-anchor="middle">gps / baro / compass flows</text>

  <rect x="840" y="330" width="500" height="60" rx="6" class="box"/>
  <text x="1090" y="352" class="box-title" text-anchor="middle">FlightDataCalculator (Replay)</text>
  <text x="1090" y="372" class="box-small" text-anchor="middle">SensorFusionRepository</text>

  <rect x="840" y="410" width="500" height="60" rx="6" class="box"/>
  <text x="1090" y="432" class="box-title" text-anchor="middle">FlightDataRepository (REPLAY)</text>
  <text x="1090" y="452" class="box-small" text-anchor="middle">SSOT + source gate</text>

  <!-- Shared map data layer -->
  <rect x="110" y="510" width="1180" height="60" rx="6" class="box"/>
  <text x="700" y="532" class="box-title" text-anchor="middle">MapScreenObservers</text>
  <text x="700" y="552" class="box-small" text-anchor="middle">combine FlightDataRepository + WindState + FlightState -> RealTimeFlightData</text>

  <rect x="110" y="590" width="1180" height="50" rx="6" class="box"/>
  <text x="700" y="612" class="box-title" text-anchor="middle">FlightDataManager.liveFlightDataFlow</text>
  <text x="700" y="632" class="box-small" text-anchor="middle">RealTimeFlightData (track, ground speed, wind)</text>

  <!-- Orientation pipeline -->
  <rect x="440" y="660" width="520" height="60" rx="6" class="box"/>
  <text x="700" y="682" class="box-title" text-anchor="middle">OrientationDataSource</text>
  <text x="700" y="702" class="box-small" text-anchor="middle">build heading inputs; smooth; gate by speed/isFlying</text>

  <rect x="440" y="730" width="520" height="60" rx="6" class="box"/>
  <text x="700" y="752" class="box-title" text-anchor="middle">HeadingResolver</text>
  <text x="700" y="772" class="box-small" text-anchor="middle">priority: compass/attitude -> wind+track -> track</text>

  <rect x="440" y="800" width="520" height="60" rx="6" class="box"/>
  <text x="700" y="822" class="box-title" text-anchor="middle">MapOrientationManager (HEADING_UP)</text>
  <text x="700" y="842" class="box-small" text-anchor="middle">bearing = headingSolution; stale 5s -> north</text>

  <rect x="440" y="870" width="520" height="50" rx="6" class="box"/>
  <text x="700" y="898" class="box-title" text-anchor="middle">OrientationData (bearing + heading)</text>

  <!-- Map application -->
  <rect x="120" y="930" width="520" height="80" rx="6" class="box"/>
  <text x="380" y="955" class="box-title" text-anchor="middle">Tracking path: LocationManager</text>
  <text x="380" y="975" class="box-small" text-anchor="middle">live GPS or replay FlightData</text>
  <text x="380" y="993" class="box-small" text-anchor="middle">MapLocationFilter -> MapPositionController</text>

  <rect x="760" y="930" width="520" height="80" rx="6" class="box"/>
  <text x="1020" y="955" class="box-title" text-anchor="middle">Not tracking path: MapCameraEffects</text>
  <text x="1020" y="978" class="box-small" text-anchor="middle">MapCameraManager.updateBearing (clamp)</text>

  <rect x="110" y="1020" width="1180" height="70" rx="6" class="box"/>
  <text x="700" y="1046" class="box-title" text-anchor="middle">MapLibre camera bearing + BlueLocationOverlay icon</text>
  <text x="700" y="1066" class="box-small" text-anchor="middle">Heading Up: map bearing = heading; icon points up (heading - map bearing = 0)</text>

  <!-- Live arrows -->
  <line x1="310" y1="160" x2="310" y2="170" class="arrow"/>
  <line x1="310" y1="220" x2="310" y2="240" class="arrow"/>
  <line x1="310" y1="300" x2="310" y2="330" class="arrow"/>
  <line x1="310" y1="390" x2="310" y2="410" class="arrow"/>

  <!-- Replay arrows -->
  <line x1="1090" y1="160" x2="1090" y2="170" class="arrow"/>
  <line x1="1090" y1="220" x2="1090" y2="240" class="arrow"/>
  <line x1="1090" y1="300" x2="1090" y2="330" class="arrow"/>
  <line x1="1090" y1="390" x2="1090" y2="410" class="arrow"/>

  <!-- Source gate to shared observers -->
  <line x1="310" y1="470" x2="310" y2="510" class="arrow-dashed"/>
  <line x1="1090" y1="470" x2="1090" y2="510" class="arrow-dashed"/>

  <!-- Shared data arrows -->
  <line x1="700" y1="570" x2="700" y2="590" class="arrow"/>
  <line x1="700" y1="640" x2="700" y2="660" class="arrow"/>

  <!-- UnifiedSensorManager to OrientationDataSource (heading inputs) -->
  <line x1="310" y1="300" x2="440" y2="690" class="arrow-dashed"/>

  <!-- Orientation arrows -->
  <line x1="700" y1="720" x2="700" y2="730" class="arrow"/>
  <line x1="700" y1="790" x2="700" y2="800" class="arrow"/>
  <line x1="700" y1="860" x2="700" y2="870" class="arrow"/>

  <!-- Apply to map -->
  <line x1="620" y1="920" x2="380" y2="930" class="arrow"/>
  <line x1="780" y1="920" x2="1020" y2="930" class="arrow"/>
  <line x1="380" y1="1010" x2="380" y2="1020" class="arrow"/>
  <line x1="1020" y1="1010" x2="1020" y2="1020" class="arrow"/>
</svg>
